# xmcd
#
# Track frame offsets:
#	150
#	15815
#	25565
#	39650
#	54387
#	66237
#	77285
#	89475
#	109675
#	124935
#	140237
#	151155
#	168795
#	186680
#	202245
#	217600
#
# Disc length: 3088 seconds
#
# Revision: 6
# Processed by: cddbd v1.5.1PL2 Copyright (c) Steve Scherf et al.
# Submitted via: audiograbber 1.83.01
#
DISCID=d00c0e10
DTITLE=Various Artist - Achy Breaky Heart - The Best Of Country - Disc 1
DYEAR=1992
DGENRE=Country
TTITLE0=Cliff Barnes and the fear of winning - Crawling Up The Hill
TTITLE1=Dave Duddley - Cowboy Boots
TTITLE2=Patty Loveless - Wicked Ways
TTITLE3=Frankie Laine - Jezebel
TTITLE4=Kenny Rogers  - Me And Bobby McGee
TTITLE5=Roger Miller - King Of The Road
TTITLE6=Patsy Cline - Crazy
TTITLE7=Gram Parsons and Emmylou Harris - Love Hurts
TTITLE8=Patty Loveless - Can't Stop Myself
TTITLE9=The Long Coats - Achy Break Heart
TTITLE10=Don Gibson - Oh Lonsome Me
TTITLE11=Nancy Griffith - Lone Star State Of Mind
TTITLE12=Mark Chesnutt - I'll Think Of Something
TTITLE13=Marty Stuart and Travis Tritt - This One's Gonna Hurt You
TTITLE14=George Straitt - So Much Like My Dad
TTITLE15=Killer Billy's - Dueling Banjos
EXTD=
EXTT0=
EXTT1=
EXTT2=
EXTT3=
EXTT4=
EXTT5=
EXTT6=
EXTT7=
EXTT8=
EXTT9=
EXTT10=
EXTT11=
EXTT12=
EXTT13=
EXTT14=
EXTT15=
PLAYORDER=
